<svg viewBox="0 0 855 855" xmlns="http://www.w3.org/2000/svg" fill-rule="evenodd" clip-rule="evenodd" stroke-linejoin="round" stroke-miterlimit="2"><g fill-rule="nonzero"><path d="M854.088 427.046c0 235.846-191.196 427.042-427.046 427.042S0 662.892 0 427.046C0 191.196 191.192 0 427.042 0c235.85 0 427.046 191.196 427.046 427.046z" fill="#1158a6"/><path fill="#fff" d="M756.696 322h41.117v210.092h-41.117zM446.321 476.721h28.238c-11.346 12.463-27.33 20.188-47.517 20.188-38.588 0-69.867-31.284-69.867-69.863 0-38.587 31.28-69.867 69.867-69.867 30.104 0 55.754 19.038 65.58 45.73h42.74c-11.02-49.684-55.316-86.846-108.32-86.846-61.296 0-110.983 49.687-110.983 110.983 0 61.292 49.687 110.984 110.983 110.984 28.946 0 51.958-10.113 69.683-26.771v20.833h38.638v-94.004H446.32v38.633zM649.03 363.117h-40.971v57.32h40.97c15.834 0 28.663-12.828 28.663-28.658 0-15.829-12.829-28.662-28.662-28.662zm-16.7 98.442h-24.271v70.533h-41.117V322h82.088c38.541 0 69.779 31.242 69.779 69.78 0 28.195-16.733 52.466-40.804 63.475l47.112 76.837h-49.541L632.33 461.56z"/></g></svg>