<?xml version="1.0" encoding="UTF-8" standalone="no"?>
<!DOCTYPE svg PUBLIC "-//W3C//DTD SVG 1.1//EN" "http://www.w3.org/Graphics/SVG/1.1/DTD/svg11.dtd">
<svg xmlns="http://www.w3.org/2000/svg" version="1.1" viewBox="0 0 2325 451" width="2325.0pt" height="451.0pt">
<path d="M 0.00 0.00 L 2325.00 0.00 L 2325.00 451.00 L 2078.59 451.00 C 2110.65 450.19 2142.23 443.58 2169.98 426.98 C 2192.37 413.58 2210.65 393.94 2220.74 369.73 C 2229.60 348.75 2231.78 325.42 2228.20 302.99 C 2225.65 287.14 2219.55 271.91 2210.17 258.86 C 2201.54 246.76 2190.20 236.41 2178.01 227.98 C 2163.86 218.10 2147.78 210.14 2132.15 202.86 C 2120.36 197.64 2108.64 192.23 2096.74 187.27 C 2081.83 180.86 2066.39 173.54 2053.72 163.28 C 2044.33 155.65 2036.47 146.28 2032.34 134.78 C 2027.00 119.78 2028.23 102.49 2035.22 88.23 C 2040.91 76.51 2050.40 67.02 2061.79 60.80 C 2075.59 53.20 2091.39 50.29 2107.00 49.98 C 2125.06 49.78 2143.06 52.58 2160.00 58.92 C 2178.23 65.54 2193.79 76.19 2208.84 88.20 C 2208.87 66.22 2208.84 44.23 2208.85 22.25 C 2173.16 5.76 2133.26 -1.94 2094.00 0.58 C 2068.30 2.33 2042.62 9.01 2020.52 22.51 C 2002.06 33.68 1986.62 49.51 1976.78 68.78 C 1967.57 86.67 1963.60 106.98 1964.93 127.03 C 1966.16 145.87 1972.47 164.32 1983.04 179.97 C 1991.86 192.90 2002.86 204.28 2015.67 213.30 C 2035.72 227.57 2059.78 237.03 2082.32 246.69 C 2098.04 253.46 2113.36 258.84 2128.11 267.87 C 2137.15 273.40 2145.29 279.82 2151.49 288.51 C 2158.39 298.27 2162.45 310.09 2163.48 321.97 C 2164.99 339.97 2158.40 358.09 2146.74 371.74 C 2135.93 384.47 2121.09 392.89 2105.06 397.22 C 2087.75 401.84 2069.14 402.09 2051.50 399.30 C 2027.17 395.54 2003.44 385.97 1982.05 373.95 C 1974.88 369.98 1968.03 365.55 1961.07 361.24 C 1961.09 382.99 1961.05 404.75 1961.10 426.50 C 1995.60 441.35 2032.46 450.25 2070.09 451.00 L 0.00 451.00 L 0.00 442.85 C 102.98 443.02 206.02 442.87 309.00 442.92 C 564.36 442.90 819.73 442.97 1075.08 442.89 C 1075.11 297.84 1075.09 152.79 1075.09 7.73 C 862.07 7.69 649.03 7.73 436.00 7.71 C 290.76 7.76 145.20 7.64 0.00 7.77 L 0.00 0.00 Z" fill="#ffffff" />
<path d="M 2094.00 0.58 C 2133.26 -1.94 2173.16 5.76 2208.85 22.25 C 2208.84 44.23 2208.87 66.22 2208.84 88.20 C 2193.79 76.19 2178.23 65.54 2160.00 58.92 C 2143.06 52.58 2125.06 49.78 2107.00 49.98 C 2091.39 50.29 2075.59 53.20 2061.79 60.80 C 2050.40 67.02 2040.91 76.51 2035.22 88.23 C 2028.23 102.49 2027.00 119.78 2032.34 134.78 C 2036.47 146.28 2044.33 155.65 2053.72 163.28 C 2066.39 173.54 2081.83 180.86 2096.74 187.27 C 2108.64 192.23 2120.36 197.64 2132.15 202.86 C 2147.78 210.14 2163.86 218.10 2178.01 227.98 C 2190.20 236.41 2201.54 246.76 2210.17 258.86 C 2219.55 271.91 2225.65 287.14 2228.20 302.99 C 2231.78 325.42 2229.60 348.75 2220.74 369.73 C 2210.65 393.94 2192.37 413.58 2169.98 426.98 C 2142.23 443.58 2110.65 450.19 2078.59 451.00 L 2070.09 451.00 C 2032.46 450.25 1995.60 441.35 1961.10 426.50 C 1961.05 404.75 1961.09 382.99 1961.07 361.24 C 1968.03 365.55 1974.88 369.98 1982.05 373.95 C 2003.44 385.97 2027.17 395.54 2051.50 399.30 C 2069.14 402.09 2087.75 401.84 2105.06 397.22 C 2121.09 392.89 2135.93 384.47 2146.74 371.74 C 2158.40 358.09 2164.99 339.97 2163.48 321.97 C 2162.45 310.09 2158.39 298.27 2151.49 288.51 C 2145.29 279.82 2137.15 273.40 2128.11 267.87 C 2113.36 258.84 2098.04 253.46 2082.32 246.69 C 2059.78 237.03 2035.72 227.57 2015.67 213.30 C 2002.86 204.28 1991.86 192.90 1983.04 179.97 C 1972.47 164.32 1966.16 145.87 1964.93 127.03 C 1963.60 106.98 1967.57 86.67 1976.78 68.78 C 1986.62 49.51 2002.06 33.68 2020.52 22.51 C 2042.62 9.01 2068.30 2.33 2094.00 0.58 Z" fill="#5f6062" />
<path d="M 0.00 7.77 C 145.20 7.64 290.76 7.76 436.00 7.71 C 649.03 7.73 862.07 7.69 1075.09 7.73 C 1075.09 152.79 1075.11 297.84 1075.08 442.89 C 819.73 442.97 564.36 442.90 309.00 442.92 C 206.02 442.87 102.98 443.02 0.00 442.85 L 0.00 7.77 Z" fill="#b30938" />
<path d="M 1157.11 10.89 C 1177.54 10.88 1197.98 10.88 1218.42 10.89 C 1218.41 153.97 1218.42 297.06 1218.41 440.15 C 1197.97 440.17 1177.53 440.19 1157.10 440.14 C 1157.09 297.06 1157.07 153.97 1157.11 10.89 Z" fill="#5f6062" />
<path d="M 1307.07 10.89 C 1387.25 10.88 1467.43 10.89 1547.61 10.88 C 1547.62 27.30 1547.62 43.72 1547.61 60.15 C 1488.06 60.16 1428.50 60.12 1368.95 60.17 C 1368.93 103.76 1368.93 147.36 1368.95 190.95 C 1420.68 191.18 1472.47 190.98 1524.22 191.06 C 1524.23 207.67 1524.23 224.28 1524.22 240.89 C 1472.46 240.92 1420.71 240.87 1368.95 240.92 C 1368.91 307.33 1368.96 373.74 1368.93 440.15 C 1348.31 440.17 1327.68 440.19 1307.05 440.14 C 1307.05 297.06 1307.02 153.97 1307.07 10.89 Z" fill="#5f6062" />
<path d="M 1603.20 10.88 C 1641.13 10.88 1679.07 10.89 1717.00 10.88 C 1737.08 11.13 1756.29 11.52 1775.96 16.11 C 1798.11 21.22 1818.92 31.75 1834.79 48.22 C 1850.30 64.27 1860.37 85.01 1864.11 106.97 C 1867.04 124.49 1866.51 142.79 1862.06 160.02 C 1857.38 178.31 1847.70 195.04 1834.59 208.59 C 1823.91 219.74 1811.58 228.41 1798.35 236.26 C 1840.11 304.24 1881.96 372.18 1923.75 440.15 C 1899.91 440.18 1876.08 440.17 1852.24 440.15 C 1813.90 378.02 1775.62 315.85 1737.28 253.71 C 1713.22 256.44 1688.69 256.67 1664.50 256.48 C 1664.47 317.70 1664.51 378.92 1664.48 440.15 C 1644.05 440.17 1623.63 440.18 1603.20 440.14 C 1603.19 297.05 1603.18 153.97 1603.20 10.88 Z" fill="#5f6062" />
<path d="M 2271.49 31.69 C 2283.67 28.43 2297.11 33.79 2302.78 45.22 C 2307.04 53.63 2306.30 64.20 2300.90 71.92 C 2295.59 79.64 2286.30 83.89 2277.00 83.29 C 2267.77 82.85 2259.03 77.52 2254.68 69.33 C 2250.72 61.99 2250.55 52.79 2254.33 45.34 C 2257.73 38.52 2264.15 33.58 2271.49 31.69 Z" fill="#5f6062" />
<path d="M 2273.49 36.72 C 2280.11 34.99 2287.46 36.83 2292.37 41.64 C 2299.35 48.30 2300.72 59.63 2295.93 67.94 C 2292.13 74.69 2284.71 78.57 2276.98 77.77 C 2267.47 77.11 2259.74 69.39 2258.56 60.02 C 2257.04 49.78 2263.33 39.33 2273.49 36.72 Z" fill="#ffffff" />
<path d="M 895.46 43.20 C 904.34 59.20 913.48 75.07 922.33 91.09 C 915.49 91.11 908.65 91.11 901.82 91.09 C 898.31 96.90 895.02 102.83 891.43 108.59 C 885.93 99.16 880.33 89.78 874.76 80.39 C 861.92 80.37 849.08 80.37 836.25 80.39 C 829.14 92.52 821.89 104.58 814.90 116.78 C 825.28 135.28 835.70 153.75 846.08 172.25 C 837.08 187.60 827.81 202.81 818.71 218.11 C 814.75 211.17 811.01 204.11 807.06 197.16 C 800.80 197.16 794.54 197.20 788.28 197.15 C 793.04 188.24 798.05 179.45 802.79 170.53 C 792.31 151.93 782.02 133.23 771.53 114.65 C 785.15 90.79 798.90 67.00 812.64 43.22 C 840.22 43.09 867.87 43.16 895.46 43.20 Z" fill="#ffffff" />
<path d="M 2268.44 44.40 C 2271.90 43.72 2275.48 43.54 2279.01 43.53 C 2281.91 43.61 2284.99 43.82 2287.43 45.58 C 2290.34 47.56 2291.16 52.15 2288.89 54.90 C 2287.93 56.10 2286.22 56.78 2284.90 57.52 C 2289.96 60.44 2289.17 65.56 2291.12 70.54 C 2288.94 70.54 2286.77 70.54 2284.59 70.54 C 2283.61 67.76 2283.13 64.77 2281.97 62.06 C 2280.38 59.72 2276.97 60.29 2274.51 60.14 C 2274.51 63.60 2274.52 67.06 2274.53 70.52 C 2272.48 70.53 2270.42 70.54 2268.36 70.55 C 2268.43 61.84 2268.23 53.10 2268.44 44.40 Z" fill="#5f6062" />
<path d="M 2274.67 48.18 C 2276.93 48.20 2279.97 47.71 2281.96 48.97 C 2283.71 50.16 2283.94 52.07 2283.07 53.91 C 2280.92 56.25 2277.50 55.70 2274.64 55.87 C 2274.65 53.31 2274.65 50.75 2274.67 48.18 Z" fill="#ffffff" />
<path d="M 1664.56 60.24 C 1678.01 60.01 1691.54 60.21 1705.00 60.15 C 1720.82 60.24 1738.15 60.21 1753.48 64.44 C 1765.68 67.73 1776.83 74.29 1785.01 83.99 C 1795.60 96.29 1800.43 111.94 1800.94 128.00 C 1801.49 144.13 1797.79 160.15 1788.50 173.51 C 1779.13 187.01 1764.58 196.35 1749.01 201.10 C 1731.95 206.43 1714.77 207.09 1697.05 206.36 C 1686.18 221.41 1675.38 236.52 1664.50 251.56 C 1664.53 187.99 1664.40 123.72 1664.56 60.24 Z" fill="#ffffff" />
<path d="M 906.10 98.00 C 934.31 97.69 963.01 97.99 991.28 97.85 C 1005.88 123.11 1020.59 148.35 1034.99 173.72 C 1025.54 189.34 1016.17 205.00 1006.77 220.65 C 1002.38 213.12 998.18 205.49 993.82 197.94 C 987.84 197.92 981.86 197.98 975.87 197.89 C 981.05 188.96 986.16 179.99 991.28 171.02 C 984.43 159.19 977.60 147.35 970.72 135.54 C 957.02 135.53 943.32 135.51 929.62 135.54 C 919.35 153.22 909.11 170.92 898.77 188.56 C 881.08 188.43 863.38 188.34 845.70 188.13 C 848.86 182.95 852.23 177.89 855.49 172.76 C 851.68 165.74 847.75 158.78 843.94 151.75 C 854.21 151.70 864.49 151.77 874.77 151.72 C 885.24 133.93 895.51 115.66 906.10 98.00 Z" fill="#ffffff" />
<path d="M 718.91 98.75 C 736.88 98.62 754.88 98.72 772.87 98.70 C 769.76 104.04 766.52 109.30 763.43 114.65 C 767.22 121.55 770.84 128.55 774.55 135.50 C 763.00 135.56 751.44 135.51 739.89 135.53 C 733.17 147.23 726.40 158.89 719.77 170.63 C 726.34 181.88 732.86 193.17 739.50 204.38 C 760.18 204.33 780.87 204.37 801.56 204.36 C 810.82 220.34 820.18 236.27 829.36 252.30 C 822.65 252.32 815.94 252.30 809.24 252.34 C 805.71 258.47 802.06 264.54 798.61 270.72 C 793.02 261.50 787.73 252.11 782.19 242.86 C 761.33 242.83 740.47 242.91 719.61 242.82 C 706.97 220.33 694.26 197.88 681.57 175.42 C 680.46 173.39 679.08 171.39 678.28 169.22 C 691.67 145.78 705.32 122.08 718.91 98.75 Z" fill="#ffffff" />
<path d="M 913.34 179.11 C 918.37 187.93 923.33 196.78 928.31 205.62 C 949.01 205.66 969.70 205.67 990.40 205.62 C 1005.81 232.24 1021.02 258.99 1036.33 285.67 C 1023.46 307.62 1010.61 329.59 997.73 351.53 C 979.02 351.53 960.30 351.54 941.58 351.53 C 944.29 346.39 946.99 341.25 949.72 336.12 C 945.76 328.70 941.67 321.35 937.79 313.89 C 950.90 313.86 964.01 313.88 977.12 313.88 C 982.73 304.05 988.31 294.19 993.84 284.32 C 985.99 270.79 978.16 257.25 970.27 243.75 C 949.56 243.77 928.86 243.76 908.16 243.75 C 899.37 228.05 890.42 212.43 881.69 196.69 C 888.67 196.64 895.64 196.70 902.61 196.66 C 905.63 191.68 908.70 186.74 911.72 181.77 C 912.26 180.88 912.80 180.00 913.34 179.11 Z" fill="#ffffff" />
<path d="M 705.16 231.74 C 708.47 237.57 711.72 243.44 715.02 249.28 C 722.86 249.35 730.70 249.27 738.55 249.33 C 733.05 259.19 727.38 268.96 721.91 278.83 C 728.47 290.36 735.02 301.90 741.62 313.41 C 754.86 313.40 768.10 313.41 781.34 313.41 C 791.70 295.46 801.91 277.43 812.29 259.50 C 831.85 259.53 851.41 259.48 870.97 259.52 C 867.02 266.28 862.90 272.93 859.00 279.72 C 861.85 285.38 864.67 291.05 867.48 296.72 C 856.82 296.77 846.15 296.74 835.48 296.72 C 825.23 314.80 815.14 332.98 804.98 351.11 C 776.72 351.14 748.46 351.11 720.19 351.12 C 705.99 327.06 691.89 302.92 677.73 278.83 C 686.82 263.10 696.00 247.42 705.16 231.74 Z" fill="#ffffff" />
<path d="M 895.35 233.04 C 898.86 238.82 902.18 244.71 905.63 250.52 C 912.91 250.55 920.20 250.52 927.49 250.54 C 921.71 261.00 915.77 271.36 909.97 281.81 C 920.36 299.62 930.82 317.40 941.19 335.23 C 927.28 359.36 913.22 383.42 899.25 407.52 C 871.67 407.58 844.10 407.54 816.52 407.54 C 807.09 391.44 797.68 375.33 788.26 359.23 C 794.99 359.18 801.71 358.84 808.44 358.72 C 811.67 353.03 814.92 347.35 818.22 341.69 C 823.61 350.62 828.78 359.67 834.15 368.60 C 848.40 368.60 862.65 368.61 876.90 368.60 C 883.76 356.93 890.60 345.26 897.44 333.58 C 887.39 315.69 877.13 297.92 867.07 280.04 C 876.50 264.38 885.89 248.68 895.35 233.04 Z" fill="#ffffff" />
</svg>